<svg xmlns="http://www.w3.org/2000/svg" viewBox="-0.5 -0.5 16 16" id="Github--Streamline-Font-Awesome" height="16" width="16"><desc>Github Streamline Icon: https://streamlinehq.com</desc><!--! Font Awesome Free 6.5.2 by @fontawesome - https://fontawesome.com License - https://fontawesome.com/license/free (Icons: CC BY 4.0, Fonts: SIL OFL 1.1, Code: MIT License) Copyright 2024 Fonticons, Inc.--><path d="M5.06679435483871 11.874326612903227c0 0.059274193548387095 -0.06816532258064516 0.10669354838709678 -0.15411290322580645 0.10669354838709678 -0.09780241935483872 0.008891129032258064 -0.1659677419354839 -0.03852822580645161 -0.1659677419354839 -0.10669354838709678 0 -0.059274193548387095 0.06816532258064516 -0.10669354838709678 0.15411290322580645 -0.10669354838709678 0.08891129032258065 -0.008891129032258064 0.1659677419354839 0.03852822580645161 0.1659677419354839 0.10669354838709678Zm-0.9217137096774194 -0.13336693548387096c-0.020745967741935486 0.059274193548387095 0.03852822580645161 0.1274395161290323 0.1274395161290323 0.14522177419354837 0.07705645161290323 0.029637096774193548 0.1659677419354839 0 0.18375 -0.059274193548387095s-0.03852822580645161 -0.1274395161290323 -0.1274395161290323 -0.15411290322580645c-0.07705645161290323 -0.020745967741935486 -0.1630040322580645 0.008891129032258064 -0.18375 0.06816532258064516Zm1.309959677419355 -0.050383064516129034c-0.0859475806451613 0.020745967741935486 -0.14522177419354837 0.07705645161290323 -0.13633064516129031 0.14522177419354837 0.008891129032258064 0.059274193548387095 0.0859475806451613 0.09780241935483872 0.17485887096774194 0.07705645161290323 0.0859475806451613 -0.020745967741935486 0.14522177419354837 -0.07705645161290323 0.13633064516129031 -0.13633064516129031 -0.008891129032258064 -0.056310483870967744 -0.08891129032258065 -0.09483870967741936 -0.17485887096774194 -0.0859475806451613Zm1.9501209677419353 -11.356935483870968c-4.110665322580645 0 -7.25516129032258 3.120786290322581 -7.25516129032258 7.231451612903226 0 3.286754032258065 2.06866935483871 6.0993145161290325 5.023487903225807 7.0891935483870965 0.37935483870967746 0.06816532258064516 0.5127217741935485 -0.1659677419354839 0.5127217741935485 -0.35860887096774197 0 -0.18375 -0.008891129032258064 -1.1973387096774193 -0.008891129032258064 -1.8197177419354837 0 0 -2.0745967741935485 0.4445564516129032 -2.5102620967741935 -0.8831854838709677 0 0 -0.3378629032258065 -0.8624395161290324 -0.8239112903225807 -1.0847177419354839 0 0 -0.6786895161290323 -0.4653024193548387 0.04741935483870968 -0.45641129032258065 0 0 0.7379637096774194 0.059274193548387095 1.143991935483871 0.7646370967741936 0.6490524193548387 1.143991935483871 1.736733870967742 0.8150201612903226 2.1605443548387093 0.6194153225806451 0.06816532258064516 -0.47419354838709676 0.2608064516129032 -0.8031653225806452 0.47419354838709676 -0.9987701612903227 -1.6567137096774194 -0.18375 -3.328245967741936 -0.42381048387096776 -3.328245967741936 -3.2748991935483875 0 -0.8150201612903226 0.22524193548387098 -1.2240120967741934 0.6994354838709678 -1.745625 -0.07705645161290323 -0.19264112903225808 -0.3289717741935484 -0.9869153225806452 0.07705645161290323 -2.0123588709677422 0.6194153225806451 -0.19264112903225808 2.0449596774193552 0.8002016129032259 2.0449596774193552 0.8002016129032259 0.592741935483871 -0.1659677419354839 1.2299395161290323 -0.2519153225806452 1.8612096774193547 -0.2519153225806452s1.268467741935484 0.0859475806451613 1.8612096774193547 0.2519153225806452c0 0 1.4255443548387097 -0.9958064516129032 2.0449596774193552 -0.8002016129032259 0.40602822580645165 1.0284072580645163 0.15411290322580645 1.8197177419354837 0.07705645161290323 2.0123588709677422 0.47419354838709676 0.5245766129032258 0.7646370967741936 0.9335685483870968 0.7646370967741936 1.745625 0 2.8599798387096773 -1.745625 3.088185483870968 -3.40233870967742 3.2748991935483875 0.27266129032258063 0.23413306451612903 0.5038306451612904 0.6786895161290323 0.5038306451612904 1.3751612903225807 0 0.9987701612903227 -0.008891129032258064 2.2346370967741933 -0.008891129032258064 2.4776612903225805 0 0.19264112903225808 0.13633064516129031 0.42677419354838714 0.5127217741935485 0.35860887096774197 2.963709677419355 -0.9839516129032259 4.973104838709677 -3.7965120967741934 4.973104838709677 -7.083266129032258 0 -4.110665322580645 -3.3341733870967745 -7.231451612903226 -7.444838709677419 -7.231451612903226Zm-4.374435483870967 10.221834677419356c-0.03852822580645161 0.029637096774193548 -0.029637096774193548 0.09780241935483872 0.020745967741935486 0.15411290322580645 0.04741935483870968 0.04741935483870968 0.11558467741935484 0.06816532258064516 0.15411290322580645 0.029637096774193548 0.03852822580645161 -0.029637096774193548 0.029637096774193548 -0.09780241935483872 -0.020745967741935486 -0.15411290322580645 -0.04741935483870968 -0.04741935483870968 -0.11558467741935484 -0.06816532258064516 -0.15411290322580645 -0.029637096774193548Zm-0.3200806451612903 -0.24006048387096773c-0.020745967741935486 0.03852822580645161 0.008891129032258064 0.0859475806451613 0.06816532258064516 0.11558467741935484 0.04741935483870968 0.029637096774193548 0.10669354838709678 0.020745967741935486 0.1274395161290323 -0.020745967741935486 0.020745967741935486 -0.03852822580645161 -0.008891129032258064 -0.0859475806451613 -0.06816532258064516 -0.11558467741935484 -0.059274193548387095 -0.017782258064516127 -0.10669354838709678 -0.008891129032258064 -0.1274395161290323 0.020745967741935486Zm0.9602419354838709 1.0550806451612902c-0.04741935483870968 0.03852822580645161 -0.029637096774193548 0.1274395161290323 0.03852822580645161 0.18375 0.06816532258064516 0.06816532258064516 0.15411290322580645 0.07705645161290323 0.19264112903225808 0.029637096774193548 0.03852822580645161 -0.03852822580645161 0.020745967741935486 -0.1274395161290323 -0.03852822580645161 -0.18375 -0.0652016129032258 -0.06816532258064516 -0.15411290322580645 -0.07705645161290323 -0.19264112903225808 -0.029637096774193548Zm-0.3378629032258065 -0.43566532258064516c-0.04741935483870968 0.029637096774193548 -0.04741935483870968 0.10669354838709678 0 0.17485887096774194s0.1274395161290323 0.09780241935483872 0.1659677419354839 0.06816532258064516c0.04741935483870968 -0.03852822580645161 0.04741935483870968 -0.11558467741935484 0 -0.18375 -0.04149193548387097 -0.06816532258064516 -0.11854838709677419 -0.09780241935483872 -0.1659677419354839 -0.059274193548387095Z" stroke-width="1" fill="#ffffff "></path></svg>