<svg xmlns="http://www.w3.org/2000/svg" viewBox="-0.5 -0.5 16 16" fill="none" id="Save--Streamline-Majesticons" height="16" width="16"><desc>Save Streamline Icon: https://streamlinehq.com</desc><path fill="#ffffff" fill-rule="evenodd" d="M0.9666874999999999 0.15C0.515625 0.15 0.15 0.515625 0.15 0.9666874999999999V14.0333125C0.15 14.484375 0.515625 14.850000000000001 0.9666874999999999 14.850000000000001H14.0333125C14.484375 14.850000000000001 14.850000000000001 14.484375 14.850000000000001 14.0333125V4.2333125C14.8499375 4.01675 14.763874999999999 3.8090625 14.61075 3.6559375L11.3440625 0.38925C11.1909375 0.23612500000000003 10.98325 0.15006250000000002 10.7666875 0.15H0.9666874999999999ZM5.866687499999999 9.1333125C5.866687499999999 7.8266875 6.955312500000001 7.5 7.5 7.5S9.1333125 7.8266875 9.1333125 9.1333125S8.0446875 10.7666875 7.5 10.7666875S5.866687499999999 10.440000000000001 5.866687499999999 9.1333125ZM9.1333125 1.7833125H4.2333125V4.2333125H9.1333125V1.7833125Z" clip-rule="evenodd" stroke-width="1"></path></svg>