<svg xmlns="http://www.w3.org/2000/svg" viewBox="-0.5 -0.5 16 16" id="User-Lock--Streamline-Font-Awesome" height="16" width="16"><desc>User Lock Streamline Icon: https://streamlinehq.com</desc><!--! Font Awesome Free 6.5.2 by @fontawesome - https://fontawesome.com License - https://fontawesome.com/license/free (Icons: CC BY 4.0, Fonts: SIL OFL 1.1, Code: MIT License) Copyright 2024 Fonticons, Inc.--><path d="M5.295 7.5c2.2632140625 0 3.67772109375 -2.44999921875 2.5461140625 -4.41 -0.5251804687499999 -0.9096398437500001 -1.495753125 -1.47 -2.5461140625 -1.47 -2.2632140625 0 -3.67772109375 2.44999921875 -2.5461140625 4.41C3.2740664062500002 6.939639843749999 4.2446390625 7.5 5.295 7.5Zm-1.049671875 1.1025C1.98290625 8.602500000000001 0.15000000000000002 10.43540625 0.15000000000000002 12.697828125000001c0 0.37668749999999995 0.30548437500000003 0.6821718750000001 0.6821718750000001 0.6821718750000001h8.335359375c-0.12403125 -0.21590625 -0.19753125000000002 -0.46626562499999996 -0.19753125000000002 -0.735V9.705c0 -0.048234374999999996 0.0022968750000000003 -0.09646874999999999 0.006890624999999999 -0.14470312500000002 -0.71203125 -0.5971875 -1.63078125 -0.957796875 -2.6322187500000003 -0.957796875h-2.09934375Zm8.032171875 -1.47c0.406546875 0 0.735 0.328453125 0.735 0.735v1.1025h-1.47v-1.1025c0 -0.406546875 0.328453125 -0.735 0.735 -0.735Zm-1.8375000000000001 0.735v1.1025c-0.406546875 0 -0.735 0.328453125 -0.735 0.735v2.94c0 0.406546875 0.328453125 0.735 0.735 0.735h3.6750000000000003c0.406546875 0 0.735 -0.328453125 0.735 -0.735V9.705c0 -0.406546875 -0.328453125 -0.735 -0.735 -0.735v-1.1025c0 -1.01521875 -0.8222812500000001 -1.8375000000000001 -1.8375000000000001 -1.8375000000000001s-1.8375000000000001 0.8222812500000001 -1.8375000000000001 1.8375000000000001Z" stroke-width="1" fill="#0ea5e9"></path></svg>